<?xml version="1.0" encoding="utf-8"?>
<!-- Generator: Adobe Illustrator 26.0.1, SVG Export Plug-In . SVG Version: 6.00 Build 0)  -->
<svg version="1.1" id="Layer_1" xmlns="http://www.w3.org/2000/svg" xmlns:xlink="http://www.w3.org/1999/xlink" x="0px" y="0px"
	 viewBox="0 0 35 18" style="enable-background:new 0 0 35 18;" xml:space="preserve">
<style type="text/css">
	.st0{enable-background:new    ;}
	.st1{fill:#53B84D;}
</style>
<g>
	<g>
		<g class="st0">
			<path class="st1" d="M12.9,7c0.4,0.3,0.7,0.6,0.9,1l-1.1,0.4c-0.2-0.5-0.7-0.8-1.3-0.8c-0.4,0-0.7,0.1-1,0.4
				c-0.3,0.3-0.4,0.6-0.4,1.1s0.1,0.8,0.4,1.1c0.3,0.3,0.6,0.4,1,0.4c0.6,0,1-0.3,1.3-0.8l1.1,0.4c-0.2,0.4-0.5,0.8-0.9,1
				c-0.4,0.3-0.9,0.4-1.4,0.4c-0.7,0-1.4-0.2-1.9-0.7c-0.5-0.5-0.7-1.1-0.7-1.8c0-0.7,0.2-1.4,0.7-1.8c0.5-0.5,1.1-0.7,1.9-0.7
				C12.1,6.6,12.5,6.7,12.9,7z"/>
			<path class="st1" d="M15.4,8.3c0.2-0.3,0.6-0.5,1.1-0.5V9c-0.1-0.1-0.2-0.1-0.4-0.1c-0.4,0-0.7,0.3-0.7,0.8v2h-1.1V8h1.1V8.3z"/>
			<path class="st1" d="M16.8,9.8c0-0.5,0.2-1,0.6-1.4c0.4-0.4,0.9-0.6,1.4-0.6c0.6,0,1,0.2,1.4,0.6c0.4,0.4,0.6,0.8,0.6,1.4
				s-0.2,1-0.6,1.4c-0.4,0.4-0.8,0.6-1.4,0.6c-0.6,0-1-0.2-1.4-0.6C16.9,10.8,16.8,10.4,16.8,9.8z M19.3,10.4
				c0.2-0.2,0.3-0.4,0.3-0.6c0-0.2-0.1-0.5-0.3-0.6C19.2,9,19,8.9,18.7,8.9c-0.2,0-0.5,0.1-0.6,0.3c-0.2,0.2-0.2,0.4-0.2,0.6
				c0,0.2,0.1,0.5,0.2,0.6s0.4,0.3,0.6,0.3C19,10.7,19.2,10.6,19.3,10.4z"/>
			<path class="st1" d="M21.2,13.3V8h1.1v0.2c0.3-0.2,0.6-0.3,1-0.3c0.5,0,0.9,0.2,1.3,0.6C24.9,8.8,25,9.3,25,9.8
				c0,0.5-0.2,1-0.5,1.4c-0.3,0.4-0.8,0.6-1.3,0.6c-0.4,0-0.7-0.1-1-0.3v1.9H21.2z M22.3,9.8c0,0.5,0.4,0.9,0.8,0.9
				c0.2,0,0.4-0.1,0.6-0.3c0.2-0.2,0.2-0.4,0.2-0.6c0-0.5-0.4-0.9-0.8-0.9C22.6,8.9,22.3,9.3,22.3,9.8z"/>
			<path class="st1" d="M26.8,11.7l-2.1-5h1.2l1.4,3.4l0.1-0.2l1.3-3.2h1.2l-2.1,5H26.8z"/>
			<path class="st1" d="M30,7c0-0.2,0.1-0.3,0.2-0.5c0.1-0.1,0.3-0.2,0.5-0.2c0.2,0,0.3,0.1,0.5,0.2c0.1,0.1,0.2,0.3,0.2,0.5
				s-0.1,0.3-0.2,0.5c-0.1,0.1-0.3,0.2-0.5,0.2c-0.2,0-0.3-0.1-0.5-0.2C30.1,7.4,30,7.2,30,7z M30.1,11.7V8h1.1v3.7H30.1z"/>
			<path class="st1" d="M31.7,10.9l1.6-2h-1.5V8h3v0.7l-1.6,2h1.6v1h-3.1V10.9z"/>
		</g>
		<g>
			<g>
				<g>
					<path class="st1" d="M7.3,9.6c0,2-1.6,3.7-3.7,3.7c-2,0-3.7-1.6-3.7-3.7c0-2,1.6-3.7,3.7-3.7C5.7,5.9,7.3,7.6,7.3,9.6z
						 M6.7,9.6c0-1.7-1.4-3.1-3.1-3.1c-1.6,0-3,1.4-3,3.1s1.4,3.1,3.1,3.1C5.4,12.7,6.7,11.3,6.7,9.6z"/>
				</g>
			</g>
			<g>
				<g>
					<path class="st1" d="M2.7,10.8c-0.1,0.2-0.1,0.4-0.2,0.5c0,0.2-0.2,0.3-0.3,0.2c-0.1,0-0.3-0.1-0.2-0.3c0-0.3,0.1-0.5,0.2-0.7
						c0.1-0.1,0.1-0.2,0-0.4c-0.1-0.7,0.1-1.4,1-1.9c0.5-0.2,1-0.3,1.5-0.3c0.3,0,0.5,0,0.8,0.1c0.1,0,0.2,0.1,0.3,0.1
						C6,8.2,6,8.5,5.9,8.7L5.8,8.8C5.3,9.1,5.1,9.4,5,9.8c0,0.1,0,0.2,0,0.3c-0.2,0.5-0.5,0.8-1,0.9C3.5,11.1,3.1,11,2.7,10.8z
						 M5.1,8.5c-0.4,0-0.8,0-1.2,0.1C3.6,8.6,3.3,8.8,3.1,9C2.9,9.2,2.8,9.5,2.8,9.8c0,0,0.1,0,0.1-0.1c0.2-0.2,0.4-0.3,0.7-0.4
						c0.2-0.1,0.3,0,0.4,0.2c0.1,0.1,0,0.3-0.2,0.4c-0.1,0-0.1,0-0.2,0.1c-0.2,0-0.4,0.2-0.6,0.3c0.1,0,0.2,0.1,0.2,0.1
						c0.2,0,0.4,0,0.6-0.1c0.3-0.1,0.5-0.3,0.6-0.6c0-0.3,0.2-0.6,0.3-0.8C4.9,8.8,5,8.7,5.1,8.5z"/>
				</g>
			</g>
			<g>
				<path class="st1" d="M3.4,7.1c0.1,0,0.3,0,0.3,0.2c0.1,0.2,0,0.4-0.3,0.4c-0.5,0-0.9,0.2-1.3,0.6C2,8.5,1.9,8.7,1.9,9
					c0,0.1-0.1,0.3-0.2,0.3s-0.2,0-0.3-0.1c0-0.1,0-0.1,0-0.2C1.5,8.2,2,7.6,2.8,7.3C2.9,7.1,3.2,7.1,3.4,7.1L3.4,7.1z"/>
			</g>
			<g>
				<path class="st1" d="M4,12.1c0,0-0.1,0-0.2-0.1c-0.1-0.1-0.2-0.2-0.1-0.3c0-0.1,0.1-0.2,0.3-0.2c0.4,0,0.8-0.2,1.1-0.5
					c0.2-0.2,0.4-0.5,0.4-0.9c0-0.2,0.2-0.3,0.4-0.2c0.2,0,0.2,0.2,0.2,0.3c0,0.3-0.1,0.5-0.3,0.8C5.4,11.7,4.8,12,4,12.1z"/>
			</g>
		</g>
	</g>
</g>
</svg>
