<svg id="Layer_1" width="30" height="30" data-name="Layer 1" xmlns="http://www.w3.org/2000/svg" viewBox="0 0 30 30">
  <defs>
    <style>
      .cls{fill:#53b84d;}
    </style>
  </defs>
  <path class="cls" d="M29.86,15A14.86,14.86,0,1,1,15,.21,14.82,14.82,0,0,1,29.86,15Zm-2.35,0A12.51,12.51,0,1,0,15,27.46,12.49,12.49,0,0,0,27.51,15Z"/>
  <path class="cls" d="M11.18,19.89c-.23.78-.45,1.48-.64,2.19a1.24,1.24,0,0,1-1.36,1,1.15,1.15,0,0,1-1-1.29,7.52,7.52,0,0,1,1-3,2,2,0,0,0,.18-1.6,6.49,6.49,0,0,1,3.58-7.68,13.67,13.67,0,0,1,6.22-1.33,9.59,9.59,0,0,1,3.11.38A4.56,4.56,0,0,1,23.32,9a1.5,1.5,0,0,1,.29,2.31,3.58,3.58,0,0,1-.52.51A7.08,7.08,0,0,0,20.63,16c-.08.34-.16.68-.27,1a5.29,5.29,0,0,1-4.18,3.59A6.56,6.56,0,0,1,11.18,19.89Zm9.76-9.25a13.65,13.65,0,0,0-4.77.22,7.41,7.41,0,0,0-3.46,1.61,4.08,4.08,0,0,0-1.29,3.25l.31-.23a9.63,9.63,0,0,1,2.64-1.59,1.15,1.15,0,0,1,1.55.62A1.11,1.11,0,0,1,15.3,16l-.62.31A8.37,8.37,0,0,0,12.51,18a8.32,8.32,0,0,0,.9.32A4.71,4.71,0,0,0,16,18.07a3.16,3.16,0,0,0,2.39-2.56,8.05,8.05,0,0,1,1.34-3.23C20.08,11.72,20.51,11.2,20.94,10.64Z"/>
  <path class="cls" d="M13.89,4.82a1.21,1.21,0,0,1,1.35.65,1.18,1.18,0,0,1-1.12,1.67A6.44,6.44,0,0,0,9,9.69a6.21,6.21,0,0,0-1.19,2.89,1.45,1.45,0,0,1-.93,1.11,1.14,1.14,0,0,1-1.25-.54,1.31,1.31,0,0,1-.14-.82,8.4,8.4,0,0,1,5.71-7,23.68,23.68,0,0,1,2.65-.61Z"/>
  <path class="cls" d="M16.25,25.1a3.2,3.2,0,0,1-.77-.22A1.09,1.09,0,0,1,15,23.66a1.24,1.24,0,0,1,1.18-.93,6.4,6.4,0,0,0,4.55-2.07,6.68,6.68,0,0,0,1.76-3.45,1.18,1.18,0,0,1,1.43-1,1.13,1.13,0,0,1,.89,1.4,8,8,0,0,1-1.11,3.05A9.3,9.3,0,0,1,16.25,25.1Z"/>
</svg>
