<svg width="19" height="19" viewBox="0 0 19 19" fill="none">
<path fill="black" d="M8.99594 1.75C5.83467 1.75 3.12633 3.69687 2.0079 6.45986C1.85248 6.84381 1.41524 7.02907 1.03129 6.87365C0.647337 6.71823 0.462076 6.28098 0.617495 5.89703C1.95733 2.58709 5.2028 0.25 8.99594 0.25C12.2315 0.25 15.0685 1.95047 16.6643 4.50471L18.0414 3.77745L18.0458 8.85188L13.8574 5.98704L15.3338 5.20735C13.9921 3.12654 11.6541 1.75 8.99594 1.75ZM7.99561 8.23999C7.99561 8.79228 7.54789 9.23999 6.99561 9.23999C6.44332 9.23999 5.99561 8.79228 5.99561 8.23999C5.99561 7.68771 6.44332 7.23999 6.99561 7.23999C7.54789 7.23999 7.99561 7.68771 7.99561 8.23999ZM9.99561 11.24C9.99561 11.7923 9.54789 12.24 8.99561 12.24C8.44332 12.24 7.99561 11.7923 7.99561 11.24C7.99561 10.6877 8.44332 10.24 8.99561 10.24C9.54789 10.24 9.99561 10.6877 9.99561 11.24ZM10.9956 9.23999C11.5479 9.23999 11.9956 8.79228 11.9956 8.23999C11.9956 7.68771 11.5479 7.23999 10.9956 7.23999C10.4433 7.23999 9.99561 7.68771 9.99561 8.23999C9.99561 8.79228 10.4433 9.23999 10.9956 9.23999ZM3.42573 16.3699C0.509906 13.9606 1.0372 11.24 1.0372 11.24C1.0372 11.24 5.36247 12.1373 6.95124 13.655C8.54001 15.1726 7.82812 18.1697 7.82812 18.1697C7.82812 18.1697 5.44098 18.035 3.42573 16.3699ZM16.9628 11.24C16.9628 11.24 17.4901 13.9606 14.5743 16.3699C12.559 18.035 10.1719 18.1697 10.1719 18.1697C10.1719 18.1697 9.46 15.1726 11.0488 13.655C12.6375 12.1373 16.9628 11.24 16.9628 11.24Z">
</path>
</svg>